HIERARCHY
ROOT Pelvis
{
	OFFSET 0.000000 0.000000 0.000000
	CHANNELS 6 Xposition Yposition Zposition Xrotation Yrotation Zrotation
	JOINT LeftUpLeg_virtual
	{
		OFFSET 0.000000 0.000000 0.000000
		CHANNELS 3 Xrotation Yrotation Zrotation
		JOINT LeftUpLeg
		{
			OFFSET 18.735201 -5.666702 -4.541200
			CHANNELS 3 Xrotation Yrotation Zrotation
			JOINT LeftLeg
			{
				OFFSET -0.021200 -31.938179 0.493100
				CHANNELS 3 Xrotation Yrotation Zrotation
				JOINT LeftFoot
				{
					OFFSET 0.021200 -31.938179 -4.336299
					CHANNELS 3 Xrotation Yrotation Zrotation
					JOINT LeftToeBase
					{
						OFFSET 0.943001 -26.722000 15.023500
						CHANNELS 3 Xrotation Yrotation Zrotation
						End Site
						{
							OFFSET 0 0 0
						}
					}
				}
			}
		}
	}
	JOINT RightUpLeg_virtual
	{
		OFFSET 0.000000 0.000000 0.000000
		CHANNELS 3 Xrotation Yrotation Zrotation
		JOINT RightUpLeg
		{
			OFFSET -18.735201 -5.666702 -4.541200
			CHANNELS 3 Xrotation Yrotation Zrotation
			JOINT RightLeg
			{
				OFFSET 0.018946 -31.938133 0.493100
				CHANNELS 3 Xrotation Yrotation Zrotation
				JOINT RightFoot
				{
					OFFSET -0.018946 -31.938126 -4.336299
					CHANNELS 3 Xrotation Yrotation Zrotation
					JOINT RightToeBase
					{
						OFFSET -0.943001 -26.722004 15.023500
						CHANNELS 3 Xrotation Yrotation Zrotation
						End Site
						{
							OFFSET 0 0 0
						}
					}
				}
			}
		}
	}
	JOINT Hips_virtual
	{
		OFFSET 0.000000 0.000000 0.000000
		CHANNELS 3 Xrotation Yrotation Zrotation
		JOINT Hips
		{
			OFFSET -0.000000 -0.000000 -0.000000
			CHANNELS 3 Xrotation Yrotation Zrotation
			JOINT Spine
			{
				OFFSET 0.000000 10.199997 -0.299500
				CHANNELS 3 Xrotation Yrotation Zrotation
				JOINT Spine1
				{
					OFFSET 0.000000 11.900002 -1.516600
					CHANNELS 3 Xrotation Yrotation Zrotation
					JOINT Spine2
					{
						OFFSET 0.000000 13.600006 -2.842500
						CHANNELS 3 Xrotation Yrotation Zrotation
						JOINT Neck_virtual
						{
							OFFSET 0.000000 0.000000 0.000000
							CHANNELS 3 Xrotation Yrotation Zrotation
							JOINT Neck
							{
								OFFSET 0.000000 9.624100 -2.890100
								CHANNELS 3 Xrotation Yrotation Zrotation
								JOINT Head
								{
									OFFSET 0.000000 14.068802 -1.351900
									CHANNELS 3 Xrotation Yrotation Zrotation
									End Site
									{
										OFFSET 0 0 0
									}
								}
							}
						}
						JOINT LeftShoulder_virtual
						{
							OFFSET 0.000000 0.000000 0.000000
							CHANNELS 3 Xrotation Yrotation Zrotation
							JOINT LeftShoulder
							{
								OFFSET 15.263000 10.923401 -0.547700
								CHANNELS 3 Xrotation Yrotation Zrotation
								JOINT LeftArm
								{
									OFFSET 25.438599 -2.830597 -13.032500
									CHANNELS 3 Xrotation Yrotation Zrotation
									JOINT LeftForeArm
									{
										OFFSET 29.960503 0.000000 0.000000
										CHANNELS 3 Xrotation Yrotation Zrotation
										JOINT LeftHand
										{
											OFFSET 27.849251 0.000000 0.000000
											CHANNELS 3 Xrotation Yrotation Zrotation
											End Site
											{
												OFFSET 0 0 0
											}
										}
									}
								}
							}
						}
						JOINT RightShoulder_virtual
						{
							OFFSET 0.000000 0.000000 0.000000
							CHANNELS 3 Xrotation Yrotation Zrotation
							JOINT RightShoulder
							{
								OFFSET -15.263000 10.923401 -0.547700
								CHANNELS 3 Xrotation Yrotation Zrotation
								JOINT RightArm
								{
									OFFSET -25.438599 -2.830597 -13.032500
									CHANNELS 3 Xrotation Yrotation Zrotation
									JOINT RightForeArm
									{
										OFFSET -29.960503 0.000000 0.000000
										CHANNELS 3 Xrotation Yrotation Zrotation
										JOINT RightHand
										{
											OFFSET -27.849251 0.000000 0.000000
											CHANNELS 3 Xrotation Yrotation Zrotation
											End Site
											{
												OFFSET 0 0 0
											}
										}
									}
								}
							}
						}
					}
				}
			}
		}
	}
}
MOTION
Frames: 4
Frame Time: 0.03333333
0.188713 92.228668 10.140459 0.000000 0.000000 0.000000 -33.468934 -38.775489 -23.109846 1.179270 15.425851 2.070533 35.350501 -0.686611 -4.060619 -15.259875 9.154176 2.590100 0.000000 0.000000 0.000000 -33.854912 -37.034081 -24.131842 17.089065 -8.395634 -8.157286 28.297146 6.594502 -1.844937 -23.557577 -15.712917 9.649427 0.000000 0.000000 0.000000 -33.221552 -37.407320 -22.690519 -1.478471 0.078586 -1.334899 12.310469 -3.671833 0.174621 4.283687 -2.172852 0.105612 0.000000 0.000000 0.000000 3.804138 -2.082456 -0.277005 0.671891 0.111680 -0.498305 0.000000 0.000000 0.000000 3.408360 -2.061670 -0.583042 -0.046945 -17.530736 -9.685471 -21.723200 3.745710 -37.239923 1.865454 -60.018771 1.419322 0.000000 0.000000 0.000000 3.893746 -1.795420 -0.445882 0.413171 14.206640 14.702056 -11.359012 -4.809417 62.131301 0.543355 40.706425 0.712585 0.000000 0.000000 0.000000 
0.776267 92.198914 10.879282 0.000000 0.000000 0.000000 -34.835980 -41.304025 -25.192287 2.380248 16.606823 1.355780 33.855202 -1.012630 -5.155554 -15.850726 10.410347 5.634063 0.000000 0.000000 0.000000 -35.174880 -39.499264 -26.057573 16.122399 -8.135976 -8.690863 28.532171 6.047685 -2.979545 -21.307996 -15.190156 10.001605 0.000000 0.000000 0.000000 -34.565948 -39.830894 -24.686525 -1.396102 0.083172 -1.327893 12.158848 -3.638188 0.279143 4.270047 -2.182530 0.112775 0.000000 0.000000 0.000000 3.809934 -2.081333 -0.271372 0.672295 0.107292 -0.485974 0.000000 0.000000 0.000000 3.406539 -2.056217 -0.575446 -0.017969 -17.560440 -9.802320 -21.554074 3.581742 -37.052905 1.788222 -59.905643 1.357528 0.000000 0.000000 0.000000 3.870211 -1.793102 -0.434078 0.497746 14.162524 14.672580 -11.514608 -4.709637 62.173696 0.516961 40.623322 0.730675 0.000000 0.000000 0.000000 
1.332731 92.203758 11.600815 0.000000 0.000000 0.000000 -36.387266 -43.670122 -27.385201 3.595530 17.501673 0.808756 32.312392 -1.441046 -6.209954 -16.239179 11.503223 7.890562 0.000000 0.000000 0.000000 -36.669206 -41.865156 -28.123750 15.048715 -8.070172 -8.709058 28.947981 5.021186 -4.102181 -18.603212 -14.787677 9.693628 0.000000 0.000000 0.000000 -36.105862 -42.103171 -26.832943 -1.265273 0.018552 -1.278808 12.012321 -3.584631 0.356466 4.252341 -2.188019 0.137679 0.000000 0.000000 0.000000 3.812250 -2.077683 -0.254898 0.666777 0.103795 -0.477802 0.000000 0.000000 0.000000 3.395833 -2.048039 -0.553366 0.019184 -17.555010 -9.870035 -21.477789 3.272337 -36.929897 1.725077 -59.738064 1.308455 0.000000 0.000000 0.000000 3.847892 -1.787074 -0.414592 0.559386 14.152453 14.668905 -11.543189 -4.694237 62.055240 0.498910 40.605007 0.757064 0.000000 0.000000 0.000000 
1.833566 92.269814 12.244829 0.000000 0.000000 0.000000 -38.164915 -45.840880 -29.677240 4.683764 18.158818 0.478682 30.988036 -1.796196 -7.154853 -16.485860 12.465546 9.602975 0.000000 0.000000 0.000000 -38.424469 -44.023411 -30.347589 13.952484 -8.269068 -8.186747 29.452288 3.652595 -4.993161 -16.047905 -14.481615 8.779114 0.000000 0.000000 0.000000 -37.866869 -44.216097 -29.080879 -1.132413 -0.106790 -1.226590 11.896287 -3.515238 0.382148 4.234529 -2.189255 0.167515 0.000000 0.000000 0.000000 3.813562 -2.072566 -0.240227 0.653106 0.101718 -0.473673 0.000000 0.000000 0.000000 3.380927 -2.039166 -0.530188 0.052311 -17.502708 -9.872232 -21.496892 2.892701 -36.854263 1.683876 -59.596993 1.290329 0.000000 0.000000 0.000000 3.830233 -1.777385 -0.397949 0.589825 14.144499 14.670082 -11.490743 -4.719034 61.874206 0.488205 40.605485 0.765032 0.000000 0.000000 0.000000 
